<svg xmlns="http://www.w3.org/2000/svg" xmlns:xlink="http://www.w3.org/1999/xlink" width="782" height="663"><script xmlns="">
        (function() {
            // If GPC on, set DOM property to true if not already true
            if (true) {
                if (navigator.globalPrivacyControl) return
                Object.defineProperty(navigator, 'globalPrivacyControl', {
                    value: true,
                    enumerable: true
                })
            } else {
                // If GPC off, set DOM property prototype to false so it may be overwritten
                // with a true value by user agent or other extensions
                if (typeof navigator.globalPrivacyControl !== "undefined") return
                Object.defineProperty(Object.getPrototypeOf(navigator), 'globalPrivacyControl', {
                    value: false,
                    enumerable: true
                })
            }
            // Remove script tag after execution
            document.currentScript.parentElement.removeChild(document.currentScript)
        })()
        </script>
  <defs>
    <linearGradient x1="33.128%" y1="40.887%" x2="19.4%" y2="55.907%" id="a">
      <stop stop-color="#FFC500" stop-opacity="0" offset="0%"/>
      <stop stop-color="#FFC500" stop-opacity=".1" offset="100%"/>
    </linearGradient>
    <path id="c" d="M22.344 67.022L0 54.087 22.344 41.15l22.343 12.936z"/>
    <filter x="-29.1%" y="-42.5%" width="158.2%" height="200.5%" filterUnits="objectBoundingBox" id="b">
      <feOffset dy="2" in="SourceAlpha" result="shadowOffsetOuter1"/>
      <feGaussianBlur stdDeviation="4" in="shadowOffsetOuter1" result="shadowBlurOuter1"/>
      <feColorMatrix values="0 0 0 0 0 0 0 0 0 0 0 0 0 0 0 0 0 0 0.1 0" in="shadowBlurOuter1"/>
    </filter>
    <linearGradient x1="78.406%" y1="-20.622%" x2="33.426%" y2="75.738%" id="d">
      <stop stop-color="#FFC500" offset="0%"/>
      <stop stop-color="#FFF3CC" offset="100%"/>
    </linearGradient>
    <linearGradient x1="66.574%" y1="100%" x2="33.426%" y2="0%" id="e">
      <stop stop-color="#FB6E00" offset="0%"/>
      <stop stop-color="#FFC500" offset="100%"/>
    </linearGradient>
    <linearGradient x1="100%" y1="66.761%" x2="0%" y2="33.239%" id="f">
      <stop stop-color="#FB6E00" offset="0%"/>
      <stop stop-color="#FFC500" offset="100%"/>
    </linearGradient>
    <path id="h" d="M22.344 67.022L0 54.087 22.344 41.15l22.343 12.936z"/>
    <filter x="-29.1%" y="-42.5%" width="158.2%" height="200.5%" filterUnits="objectBoundingBox" id="g">
      <feOffset dy="2" in="SourceAlpha" result="shadowOffsetOuter1"/>
      <feGaussianBlur stdDeviation="4" in="shadowOffsetOuter1" result="shadowBlurOuter1"/>
      <feColorMatrix values="0 0 0 0 0 0 0 0 0 0 0 0 0 0 0 0 0 0 0.1 0" in="shadowBlurOuter1"/>
    </filter>
    <linearGradient x1="73.689%" y1="106.845%" x2="23.736%" y2="32.293%" id="i">
      <stop stop-color="#FFC500" offset="0%"/>
      <stop stop-color="#FB6E00" offset="63.248%"/>
      <stop stop-color="#D22" offset="100%"/>
    </linearGradient>
    <path d="M112.39 119.914a1.712 1.712 0 1 0 3.425-.002 1.712 1.712 0 0 0-3.425.002" id="k"/>
    <filter x="-453%" y="-452.6%" width="1006%" height="1005.1%" filterUnits="objectBoundingBox" id="j">
      <feMorphology radius="1.5" operator="dilate" in="SourceAlpha" result="shadowSpreadOuter1"/>
      <feOffset in="shadowSpreadOuter1" result="shadowOffsetOuter1"/>
      <feGaussianBlur stdDeviation="4" in="shadowOffsetOuter1" result="shadowBlurOuter1"/>
      <feComposite in="shadowBlurOuter1" in2="SourceAlpha" operator="out" result="shadowBlurOuter1"/>
      <feColorMatrix values="0 0 0 0 0.984313725 0 0 0 0 0.431372549 0 0 0 0 0 0 0 0 1 0" in="shadowBlurOuter1"/>
    </filter>
    <path d="M67.054 171.712a3.318 3.318 0 0 0 3.315 3.32 3.318 3.318 0 0 0 0-6.638 3.318 3.318 0 0 0-3.315 3.318" id="m"/>
    <filter x="-233.8%" y="-233.5%" width="567.6%" height="567%" filterUnits="objectBoundingBox" id="l">
      <feMorphology radius="1.5" operator="dilate" in="SourceAlpha" result="shadowSpreadOuter1"/>
      <feOffset in="shadowSpreadOuter1" result="shadowOffsetOuter1"/>
      <feGaussianBlur stdDeviation="4" in="shadowOffsetOuter1" result="shadowBlurOuter1"/>
      <feComposite in="shadowBlurOuter1" in2="SourceAlpha" operator="out" result="shadowBlurOuter1"/>
      <feColorMatrix values="0 0 0 0 0.984313725 0 0 0 0 0.431372549 0 0 0 0 0 0 0 0 1 0" in="shadowBlurOuter1"/>
    </filter>
    <linearGradient x1="99.822%" y1="106.845%" x2="-5.237%" y2="32.293%" id="n">
      <stop stop-color="#FFC500" offset="0%"/>
      <stop stop-color="#FB6E00" offset="63.248%"/>
      <stop stop-color="#D22" offset="100%"/>
    </linearGradient>
    <path d="M107.39 61.203a3 3 0 0 0 3 2.997 2.996 2.996 0 0 0 2.995-2.997 3 3 0 0 0-2.995-3.003c-1.655 0-3 1.346-3 3.003" id="p"/>
    <filter x="-258.6%" y="-258.3%" width="617.1%" height="616.7%" filterUnits="objectBoundingBox" id="o">
      <feMorphology radius="1.5" operator="dilate" in="SourceAlpha" result="shadowSpreadOuter1"/>
      <feOffset in="shadowSpreadOuter1" result="shadowOffsetOuter1"/>
      <feGaussianBlur stdDeviation="4" in="shadowOffsetOuter1" result="shadowBlurOuter1"/>
      <feComposite in="shadowBlurOuter1" in2="SourceAlpha" operator="out" result="shadowBlurOuter1"/>
      <feColorMatrix values="0 0 0 0 0.984313725 0 0 0 0 0.431372549 0 0 0 0 0 0 0 0 1 0" in="shadowBlurOuter1"/>
    </filter>
    <path d="M67.054 104.712a3.318 3.318 0 0 0 3.315 3.32 3.318 3.318 0 0 0 0-6.638 3.318 3.318 0 0 0-3.315 3.318" id="r"/>
    <filter x="-233.8%" y="-233.5%" width="567.6%" height="567%" filterUnits="objectBoundingBox" id="q">
      <feMorphology radius="1.5" operator="dilate" in="SourceAlpha" result="shadowSpreadOuter1"/>
      <feOffset in="shadowSpreadOuter1" result="shadowOffsetOuter1"/>
      <feGaussianBlur stdDeviation="4" in="shadowOffsetOuter1" result="shadowBlurOuter1"/>
      <feComposite in="shadowBlurOuter1" in2="SourceAlpha" operator="out" result="shadowBlurOuter1"/>
      <feColorMatrix values="0 0 0 0 0.984313725 0 0 0 0 0.431372549 0 0 0 0 0 0 0 0 1 0" in="shadowBlurOuter1"/>
    </filter>
    <linearGradient x1="69.842%" y1="106.845%" x2="28.002%" y2="32.293%" id="s">
      <stop stop-color="#FFC500" offset="0%"/>
      <stop stop-color="#FB6E00" offset="63.248%"/>
      <stop stop-color="#D22" offset="100%"/>
    </linearGradient>
    <path id="u" d="M22.344 67.022L0 54.087 22.344 41.15l22.343 12.936z"/>
    <filter x="-29.1%" y="-42.5%" width="158.2%" height="200.5%" filterUnits="objectBoundingBox" id="t">
      <feOffset dy="2" in="SourceAlpha" result="shadowOffsetOuter1"/>
      <feGaussianBlur stdDeviation="4" in="shadowOffsetOuter1" result="shadowBlurOuter1"/>
      <feColorMatrix values="0 0 0 0 0 0 0 0 0 0 0 0 0 0 0 0 0 0 0.1 0" in="shadowBlurOuter1"/>
    </filter>
    <linearGradient x1="0%" y1="67.29%" y2="32.71%" id="v">
      <stop stop-color="#FB6E00" offset="0%"/>
      <stop stop-color="#FFC500" offset="100%"/>
    </linearGradient>
    <linearGradient x1="76.043%" y1="100%" x2="23.957%" y2="0%" id="w">
      <stop stop-color="#FFC500" offset="0%"/>
      <stop stop-color="#FB6E00" offset="100%"/>
    </linearGradient>
    <linearGradient x1="58.768%" y1="20.253%" x2="14.154%" y2="40.554%" id="x">
      <stop stop-color="#FB6E00" stop-opacity="0" offset="0%"/>
      <stop stop-color="#FB6E00" stop-opacity=".5" offset="100%"/>
    </linearGradient>
    <linearGradient x1="33.128%" y1="35.551%" x2="-7.556%" y2="57.488%" id="y">
      <stop stop-color="#FFC500" stop-opacity="0" offset="0%"/>
      <stop stop-color="#FFC500" stop-opacity=".4" offset="100%"/>
    </linearGradient>
    <linearGradient x1="29.166%" y1="44.438%" x2="64.558%" y2="67.363%" id="z">
      <stop stop-color="#FFC500" stop-opacity=".1" offset="0%"/>
      <stop stop-color="#FFC500" offset="100%"/>
    </linearGradient>
    <linearGradient x1="100%" y1="91.796%" x2="0%" y2="8.204%" id="A">
      <stop stop-color="#FB6E00" offset="0%"/>
      <stop stop-color="#FFF3CC" offset="100%"/>
    </linearGradient>
    <linearGradient x1="-2.65%" y1="63.989%" x2="50%" y2="41.005%" id="B">
      <stop stop-color="#FFE799" stop-opacity=".5" offset="0%"/>
      <stop stop-color="#FFE799" stop-opacity="0" offset="100%"/>
    </linearGradient>
    <linearGradient x1="-53.043%" y1="45.7%" x2="72.92%" y2="33.791%" id="C">
      <stop stop-color="#FFE799" stop-opacity=".5" offset="0%"/>
      <stop stop-color="#FFE799" stop-opacity="0" offset="100%"/>
    </linearGradient>
    <linearGradient x1="100%" y1="39.882%" x2="0%" y2="60.118%" id="D">
      <stop stop-color="red" offset="0%"/>
      <stop stop-color="#720096" offset="100%"/>
    </linearGradient>
    <linearGradient x1="0%" y1="23.209%" x2="275.639%" y2="76.791%" id="E">
      <stop stop-color="#D22" offset="0%"/>
      <stop stop-color="#720096" offset="100%"/>
    </linearGradient>
    <linearGradient x1="100%" y1="32.345%" x2="6.147%" y2="56.358%" id="F">
      <stop stop-color="#FB6E00" offset="0%"/>
      <stop stop-color="#FFC500" offset="100%"/>
    </linearGradient>
    <linearGradient x1="100%" y1="66.806%" x2="51.729%" y2="50.581%" id="H">
      <stop stop-color="#FB6E00" offset="0%"/>
      <stop stop-color="#FFC500" offset="100%"/>
    </linearGradient>
    <path d="M245.513 71.84c1.104-.64 1.224-1.611.269-2.17L126.379.375c-.955-.555-2.63-.486-3.734.155L.92 71.024c-1.112.641-1.231 1.612-.273 2.17l119.4 69.295c.958.559 2.632.49 3.737-.15L245.513 71.84z" id="G"/>
    <path d="M245.513 71.84c1.104-.64 1.224-1.611.269-2.17L126.379.375c-.955-.555-2.63-.486-3.734.155L.92 71.024c-1.112.641-1.231 1.612-.273 2.17l119.4 69.295c.958.559 2.632.49 3.737-.15L245.513 71.84z" id="J"/>
    <path d="M245.513 71.84c1.104-.64 1.224-1.611.269-2.17L126.379.375c-.955-.555-2.63-.486-3.734.155L.92 71.024c-1.112.641-1.231 1.612-.273 2.17l119.4 69.295c.958.559 2.632.49 3.737-.15L245.513 71.84z" id="L"/>
    <linearGradient x1="42.474%" y1="62.496%" x2="7.942%" y2="40.73%" id="N">
      <stop stop-color="#D22" offset="0%"/>
      <stop stop-color="#FFC500" offset="100%"/>
    </linearGradient>
    <linearGradient x1="0%" y1="31.809%" y2="68.191%" id="O">
      <stop stop-color="red" offset="0%"/>
      <stop stop-color="#720096" offset="100%"/>
    </linearGradient>
    <linearGradient x1="83.45%" y1="35.336%" x2="-41.805%" y2="82.315%" id="P">
      <stop stop-color="#010101" stop-opacity="0" offset="0%"/>
      <stop stop-color="#010101" offset="95%"/>
    </linearGradient>
    <linearGradient x1="42.474%" y1="65.148%" x2="7.942%" y2="38.762%" id="Q">
      <stop stop-color="#D22" offset="0%"/>
      <stop stop-color="#FFC500" offset="100%"/>
    </linearGradient>
    <linearGradient x1="36.373%" y1="47.773%" x2="104.843%" y2="72.519%" id="R">
      <stop stop-color="#FFF" offset="0%"/>
      <stop stop-color="#E5E5E5" offset="100%"/>
    </linearGradient>
    <linearGradient x1="83.174%" y1="83.649%" x2="-100.069%" y2="-113.103%" id="S">
      <stop stop-color="#010101" stop-opacity="0" offset="0%"/>
      <stop stop-color="#010101" offset="95%"/>
    </linearGradient>
    <path id="U" d="M22.344 67.022L0 54.087 22.344 41.15l22.343 12.936z"/>
    <filter x="-29.1%" y="-42.5%" width="158.2%" height="200.5%" filterUnits="objectBoundingBox" id="T">
      <feOffset dy="2" in="SourceAlpha" result="shadowOffsetOuter1"/>
      <feGaussianBlur stdDeviation="4" in="shadowOffsetOuter1" result="shadowBlurOuter1"/>
      <feColorMatrix values="0 0 0 0 0 0 0 0 0 0 0 0 0 0 0 0 0 0 0.1 0" in="shadowBlurOuter1"/>
    </filter>
  </defs>
  <g fill="none" fill-rule="evenodd">
    <path fill-opacity=".1" fill="#FFE799" d="M368 10.508v226.584l243 140.416V150.924z"/>
    <path fill="url(#a)" d="M611.972 151.33L734.466 84.64 520 0 380 18.205z"/>
    <g opacity=".4" fill="#FFC500">
      <path d="M424.48 109l-18.06-9.285-.038-3.715 18.053 9.282zM439.925 117l-9.164-4.444-.001-3.556 9.163 4.441zM429.533 120l-7.167-4.126-.123-3.874 7.169 4.123zM442.748 127l-9.163-4.444-.002-3.556 9.163 4.441zM456.694 143l-34.714-18.275-.058-3.725 34.712 18.278zM442.823 215l-34.714-18.275-.058-3.725 34.711 18.275zM456.07 222l-9.162-4.442-.002-3.558 9.163 4.442zM429.817 138l-7.168-4.123-.124-3.877 7.17 4.126zM442.848 144l-9.164-4.444.002-3.556 9.16 4.441zM441.328 152l-19.237-10.216-.07-3.784 19.243 10.216zM454.583 159l-9.163-4.442-.002-3.558 9.163 4.442zM466.68 165l-9.166-4.444-.002-3.556 9.163 4.441zM487.7 176l-16.907-8.43-.022-3.57 16.908 8.43zM477.874 188l-9.166-4.444-.002-3.556 9.164 4.444zM498.895 199l-16.908-8.43-.022-3.57 16.909 8.434zM431.495 164l-9.164-4.444-.001-3.556 9.163 4.441zM444.589 170l-9.164-4.444-.001-3.556 9.163 4.444zM464.612 181l-16.908-8.432-.018-3.568 16.905 8.432zM490.506 186l-9.163-4.444-.001-3.556 9.162 4.441zM502.783 193l-9.164-4.444-.001-3.556 9.163 4.444zM523.624 203l-16.908-8.43-.022-3.57 16.909 8.434zM470.347 229l-9.163-4.442-.002-3.558 9.164 4.442zM490.37 240l-16.907-8.43-.022-3.57 16.909 8.434zM431.595 181l-9.163-4.442V173l9.16 4.442zM452.618 192l-16.908-8.43-.022-3.57 16.909 8.43zM483.218 157l-9.163-4.442-.001-3.558 9.163 4.442zM469.942 150l-9.163-4.444-.002-3.556 9.163 4.441zM504.06 167l-16.909-8.43-.021-3.57 16.908 8.434zM430.868 155l-8.14-4.238-.054-3.762 8.14 4.238zM454.075 167l-19.256-10.254-.069-3.746 19.256 10.257zM477.445 180l-19.256-10.257-.069-3.743 19.257 10.257zM516.333 174l-8.141-4.24-.053-3.76 8.14 4.238zM539.54 186l-19.257-10.255-.068-3.745 19.255 10.255zM442.08 178l-19.255-10.255-.07-3.745 19.257 10.255zM452.17 184l-5.964-3.197-.075-3.803 5.964 3.197zM463.082 189l-5.965-3.197-.074-3.803 5.964 3.197zM481.716 198l-14.727-7.418-.028-3.582 14.727 7.418zM497.623 181l-5.964-3.197-.075-3.803 5.964 3.197zM516.437 191l-14.725-7.418-.028-3.582 14.727 7.415z"/>
      <path d="M519.805 193l-14.728-7.418-.028-3.582 14.727 7.415zM413.626 181l-5.967-3.197-.075-3.803 5.964 3.197zM433.255 190l-14.725-7.418-.028-3.582 14.727 7.415zM452.081 200l-14.727-7.416-.028-3.584 14.727 7.416z"/>
    </g>
    <use filter="url(#b)" xlink:href="#c" fill="#000" transform="translate(345 46)"/>
    <g opacity=".8">
      <path fill="url(#d)" d="M22.344 51.745L0 38.807V12.936l22.344 12.938z" transform="translate(345 46)"/>
      <path fill="url(#e)" d="M44.686 38.808L22.342 51.746V25.872l22.344-12.935z" transform="translate(345 46)"/>
      <path fill="url(#f)" d="M22.344 25.873L0 12.935 22.344 0l22.343 12.938z" transform="translate(345 46)"/>
    </g>
    <g opacity=".5">
      <g opacity=".3">
        <path fill="url(#d)" d="M22.344 51.745L0 38.807V12.936l22.344 12.938z" transform="translate(70 335)"/>
        <path fill="url(#e)" d="M44.686 38.808L22.342 51.746V25.872l22.344-12.935z" transform="translate(70 335)"/>
        <path fill="url(#f)" d="M22.344 25.873L0 12.935 22.344 0l22.343 12.938z" transform="translate(70 335)"/>
      </g>
      <use filter="url(#g)" xlink:href="#h" fill="#000" transform="translate(70 275)"/>
      <path fill="url(#d)" d="M22.344 51.745L0 38.807V12.936l22.344 12.938z" transform="translate(70 275)"/>
      <path fill="url(#e)" d="M44.686 38.808L22.342 51.746V25.872l22.344-12.935z" transform="translate(70 275)"/>
      <path fill="url(#f)" d="M22.344 25.873L0 12.935 22.344 0l22.343 12.938z" transform="translate(70 275)"/>
    </g>
    <g opacity=".3">
      <g opacity=".8">
        <path fill="url(#d)" d="M22.344 51.745L0 38.807V12.936l22.344 12.938z" transform="translate(3 50)"/>
        <path fill="url(#e)" d="M44.686 38.808L22.342 51.746V25.872l22.344-12.935z" transform="translate(3 50)"/>
        <path fill="url(#f)" d="M22.344 25.873L0 12.935 22.344 0l22.343 12.938z" transform="translate(3 50)"/>
      </g>
    </g>
    <g opacity=".2">
      <path fill="url(#d)" d="M22.344 51.745L0 38.807V12.936l22.344 12.938z" transform="translate(723.837 70.9)"/>
      <path fill="url(#e)" d="M44.686 38.808L22.342 51.746V25.872l22.344-12.935z" transform="translate(723.837 70.9)"/>
      <path fill="url(#f)" d="M22.344 25.873L0 12.935 22.344 0l22.343 12.938z" transform="translate(723.837 70.9)"/>
    </g>
    <path d="M116.501 215.817l-81.718-51.173C15.716 153.624.2 126.73.2 104.69V0h1.306v104.69c0 21.624 15.22 48.013 33.931 58.824l81.586 51.09-.52 1.213z" fill="url(#i)" transform="matrix(-1 0 0 1 512.042 323.894)"/>
    <g transform="matrix(-1 0 0 1 623.023 323.894)">
      <use fill="#000" filter="url(#j)" xlink:href="#k"/>
      <use stroke="#FFC500" fill="#FFD64D" xlink:href="#k"/>
    </g>
    <g transform="matrix(-1 0 0 1 535.559 323.894)">
      <use fill="#000" filter="url(#l)" xlink:href="#m"/>
      <use stroke="#FFC500" fill="#FFD64D" xlink:href="#m"/>
    </g>
    <path d="M116.501 148.817L34.783 97.644C15.716 86.624.2 59.73.2 37.69V0h1.306v37.69c0 21.624 15.22 48.013 33.931 58.824l81.586 51.09-.52 1.213z" fill="url(#n)" transform="matrix(-1 0 0 1 452.042 350.894)"/>
    <g transform="matrix(-1 0 0 1 555.596 350.894)">
      <use fill="#000" filter="url(#o)" xlink:href="#p"/>
      <use stroke="#FFC500" fill="#FFD64D" xlink:href="#p"/>
    </g>
    <g transform="matrix(-1 0 0 1 475.559 350.894)">
      <use fill="#000" filter="url(#q)" xlink:href="#r"/>
      <use stroke="#FFC500" fill="#FFD64D" xlink:href="#r"/>
    </g>
    <path d="M116.501 235.817l-81.718-51.173C15.716 173.624.2 146.73.2 124.69V0h1.306v124.69c0 21.624 15.22 48.013 33.931 58.824l81.586 51.09-.52 1.213z" transform="matrix(-1 0 0 1 387.042 239.894)" fill="url(#s)"/>
    <g opacity=".4">
      <use filter="url(#t)" xlink:href="#u" fill="#000" transform="translate(522 507)"/>
      <path fill="url(#d)" d="M22.344 51.745L0 38.807V12.936l22.344 12.938z" transform="translate(522 507)"/>
      <path fill="url(#e)" d="M44.686 38.808L22.342 51.746V25.872l22.344-12.935z" transform="translate(522 507)"/>
      <path fill="url(#f)" d="M22.344 25.873L0 12.935 22.344 0l22.343 12.938z" transform="translate(522 507)"/>
    </g>
    <path d="M417.034 227.94L201.711 355.05c-1.558.9-2.415 2.108-2.415 3.408 0 1.626 1.296 3.305 3.551 4.607l75.925 43.875c4.5 2.604 11.307 2.888 15.172.656l215.324-127.11c1.557-.898 2.415-2.11 2.415-3.407 0-1.627-1.296-3.303-3.552-4.608l-75.922-43.874c-2.47-1.427-5.637-2.16-8.63-2.16-2.458 0-4.8.493-6.545 1.503zM278.12 408.07l-75.925-43.875c-2.669-1.542-4.2-3.635-4.2-5.737 0-1.784 1.087-3.395 3.064-4.538L416.38 226.808c4.23-2.442 11.619-2.148 16.481.659l75.92 43.874c2.671 1.542 4.202 3.635 4.202 5.738 0 1.783-1.087 3.394-3.063 4.537l-215.324 127.11c-1.926 1.11-4.506 1.656-7.2 1.656-3.232 0-6.631-.78-9.278-2.312z" fill="url(#v)" transform="matrix(-1 0 0 1 710.978 0)"/>
    <path fill="url(#w)" d="M0 57.508v187.537L232.023 379V191.462z" transform="translate(198 3)"/>
    <path fill="url(#x)" d="M231.649 191.578l125.806-68.623v184.803L231.649 379z" transform="translate(198 3)"/>
    <path fill="url(#y)" d="M231.972 191.33l122.494-66.691L117.636.779 0 58.204z" transform="translate(198 3)"/>
    <g opacity=".9">
      <path d="M275.972 220.998l30.575 12.376-30.575-12.376zM215.09 176.7l61.338 44.973L215.09 176.7zM275.886 221.132l31.747-31.892-31.747 31.892zM276.331 221.96l-5.144-85.548 5.144 85.549z" stroke="#FFD64D" stroke-width="2" stroke-linecap="round" stroke-linejoin="round"/>
      <path d="M215.163 177.473l56.193-40.574-56.193 40.574z" stroke="#FFDF73" stroke-width="2" stroke-linecap="round" stroke-linejoin="round"/>
      <path d="M349.325 200.149l-25.131-43.925 25.131 43.925z" stroke="#FFC500" stroke-width="2" stroke-linecap="round" stroke-linejoin="round"/>
      <path d="M306.71 189.945l-35.901-53.517 35.901 53.517z" stroke="#FFD64D" stroke-width="2" stroke-linecap="round" stroke-linejoin="round"/>
      <path d="M306.813 190.176l16.893-33.98-16.893 33.98zM349.325 200.149l-25.131-43.925 25.131 43.925zM349.095 200.329l51.328 58.715-51.328-58.715zM349.08 200.153l-15.641 25.067 15.64-25.067zM331.28 297.398l1.959-71.423-1.96 71.423zM333.041 299.304l41.436-.235-41.436.235zM307.956 188.228l41.607 12.916-41.607-12.916zM308.707 190.19l26.105 36.993-26.105-36.993zM330.919 298.26L305.6 234.112l25.319 64.148z" stroke="#FFC500" stroke-width="2" stroke-linecap="round" stroke-linejoin="round"/>
      <path d="M306.66 193.948c2.634 1.101 5.038.085 5.368-2.268.331-2.354-1.536-5.155-4.17-6.256-2.634-1.1-5.037-.085-5.368 2.27-.33 2.353 1.537 5.153 4.17 6.254zM338.071 228.496c-.367 2.614-2.852 3.764-5.555 2.567-2.7-1.195-4.59-4.283-4.223-6.897.368-2.615 2.854-3.764 5.554-2.568 2.702 1.196 4.592 4.284 4.224 6.898zM379.58 302.04c-.33 2.348-2.509 3.369-4.863 2.284-2.357-1.086-4.002-3.868-3.672-6.216.33-2.348 2.509-3.368 4.866-2.282 2.355 1.085 4 3.867 3.67 6.215zM401.078 257.258c-.257 1.829-2.175 2.61-4.285 1.741-2.11-.868-3.61-3.055-3.352-4.884.257-1.829 2.174-2.61 4.283-1.742 2.11.868 3.61 3.056 3.354 4.885zM323.58 160.084c2.094.98 4.028.088 4.32-1.993.293-2.08-1.167-4.563-3.26-5.543-2.093-.98-4.027-.088-4.32 1.992-.292 2.081 1.168 4.563 3.26 5.544zM270.405 147.124c5.25 2.336 10.1-.017 10.837-5.256.736-5.238-2.922-11.378-8.17-13.713-5.25-2.336-10.102.017-10.838 5.255-.736 5.239 2.922 11.378 8.171 13.714zM275.27 230.33c5.283 2.095 10.062.26 10.674-4.099.613-4.358-3.173-9.59-8.455-11.686-5.283-2.096-10.062-.261-10.675 4.098-.612 4.359 3.174 9.591 8.456 11.687zM215.94 181.12c2.355 1.102 4.53.099 4.86-2.242.329-2.341-1.314-5.133-3.668-6.236-2.355-1.103-4.53-.1-4.86 2.241-.329 2.341 1.314 5.133 3.668 6.236zM330.555 305.293c4.689 1.915 8.967.065 9.557-4.132.59-4.197-2.732-9.152-7.42-11.067-4.689-1.915-8.968-.065-9.558 4.132-.59 4.197 2.733 9.152 7.421 11.067zM349.15 207.714c3.688 1.541 7.053.119 7.516-3.176.463-3.296-2.15-7.216-5.838-8.758-3.687-1.54-7.052-.119-7.515 3.177-.463 3.295 2.15 7.216 5.838 8.757zM306.659 238.961c2.637 1.077 5.044.037 5.375-2.324.332-2.36-1.537-5.148-4.174-6.225-2.637-1.078-5.044-.037-5.376 2.324-.331 2.36 1.537 5.148 4.175 6.225z" fill="#FFE799"/>
    </g>
    <path d="M633.034 293.94L392.711 432.05c-1.558.9-2.415 2.108-2.415 3.408 0 1.626 1.296 3.305 3.551 4.607l75.925 43.875c4.5 2.604 11.307 2.888 15.172.656l240.324-138.11c1.557-.898 2.415-2.11 2.415-3.407 0-1.627-1.296-3.303-3.552-4.608l-75.922-43.874c-2.47-1.427-5.637-2.16-8.63-2.16-2.458 0-4.8.493-6.545 1.503zM469.12 485.07l-75.925-43.875c-2.669-1.542-4.2-3.635-4.2-5.737 0-1.784 1.087-3.395 3.064-4.538L632.38 292.808c4.23-2.442 11.619-2.148 16.481.659l75.92 43.874c2.671 1.542 4.202 3.635 4.202 5.738 0 1.783-1.087 3.394-3.063 4.537l-240.324 138.11c-1.926 1.11-4.506 1.656-7.2 1.656-3.232 0-6.631-.78-9.278-2.312z" fill="url(#z)" transform="matrix(-1 0 0 1 1117.978 0)"/>
    <g>
      <path fill="url(#A)" d="M0 78v82.963L245 302v-82.963z" transform="translate(393 157)"/>
      <path d="M627.596 408.786c-12.208 2.279-28.45-3.545-43.444-15.642-7.526-6.072-14.62-13.522-21.934-20.304-7.313-6.782-15.155-13.088-22.66-15.853-9.33-3.433-16.972-.996-26.085-3.458-10.167-2.75-19.43-11.091-28.894-20.222-5.826-5.623-12.326-8.582-18.226-10.143-5.897-1.563-11.453-1.931-17.339-3.458-7.624-1.975-15.76-5.905-23.73-11.466-6.65-4.635-13.56-10.86-17.98-18.664" stroke="#FB6E00" stroke-width="3" stroke-linecap="round"/>
      <path d="M627.805 416.668c-11.7-10.875-22.391-24.292-34.619-33.743-12.166-9.4-25.585-12.819-35.984-12.677-4.33.06-8.678.393-13.63-1.679-7.307-3.058-14.54-10.711-21.32-17.838-9.613-10.11-17.891-16.971-27.553-17.685-8.056-.594-15.266 1.017-23.826-.928-10.672-2.426-22.567-10.282-33.397-20.143-10.826-9.862-20.753-21.677-30.294-33.655" stroke="#D22" stroke-width="3" stroke-linecap="round"/>
      <path d="M627.953 422.28c-6.35-3.076-12.905-8.451-18.388-15.095-5.547-6.72-9.842-14.442-14.695-21.736-4.853-7.292-10.799-14.654-17.251-18.255-7.247-4.042-13.392-2.389-18.042.597-4.653 2.986-8.55 7.238-14.37 8.254-4.033.708-9.36-.483-14.12-4.99-5.492-5.2-8.458-12.904-11.43-19.825-2.453-5.715-5.33-11.543-9.231-16.743-3.897-5.198-8.973-9.724-13.582-11.112-6.935-2.086-10.74 3.082-14.359 7.376-3.622 4.297-9.174 7.835-16.362 2.976-3.32-2.247-6.313-5.912-8.925-9.602-7.448-10.527-11.837-25.395-22.726-32.135-3.859-2.387-7.587-2.859-10.634-2.223-7.16 1.497-12.52 8.414-16.158 14.71" stroke="#FFF" stroke-width="3" opacity=".7" stroke-linecap="round"/>
      <path stroke-opacity=".4" stroke="#FFF" d="M401.504 260.833l1.252 47.47 225.189 127.41"/>
      <path fill="url(#B)" d="M245 219l136-69L141 0 0 77.502z" transform="translate(393 157)"/>
      <path fill="url(#C)" d="M245 219l101-50v82.756L245 303z" transform="translate(393 157)"/>
    </g>
    <g>
      <path d="M292.693 490.726l127.213 72.978c1.986 1.139 2.682 3.688 1.554 5.694a4.157 4.157 0 0 1-1.505 1.54l-128.999 76.343a12.299 12.299 0 0 1-12.717-.106l-119.59-73.468c-2.601-1.598-3.428-5.023-1.845-7.651a5.539 5.539 0 0 1 1.996-1.953l128.457-73.382a5.465 5.465 0 0 1 5.436.005z" stroke="#FC994D" stroke-linecap="square"/>
      <path d="M198.599 505.797l-31.88 18.351 63.894 36.91 55.615 30.286 4.79-.233 92.877-51.825 5.558-2.864a272.659 272.659 0 0 1 14.644 18.111l-107.155 61.683c-4.216 2.437-11.593 2.139-16.471-.663L157.655 545c-2.697-1.543-4.056-3.531-4.032-5.41l-.01.01v-22.104l4.206 3.744 3.62-2.091c-.395-.459-.666-.859-.59-.982.212-.376 1.794-3.114 1.794-3.114l27.015-15.904a127.583 127.583 0 0 1 8.941 6.648"/>
      <path d="M252.133 83.652l-63.894 36.91-55.615 30.286-4.79-.233L1.37 78.432c0 7.768-.084 11.723-.013 24.933.013 2.587 1.384 2.587 1.384 2.587l119.168 69.768c4.217 2.437 11.593 2.139 16.472-.663l122.816-70.553c2.697-1.543 4.056-3.531 4.032-5.41l.01.01V77l-4.206 3.744-3.62-2.091c.395-.459.666-.859.59-.982-.213-.376-1.794-3.114-1.794-3.114l-27.015-15.904a127.583 127.583 0 0 0-8.941 6.648l31.88 18.351z" fill="url(#D)" transform="matrix(-1 0 0 1 418.852 440.496)"/>
      <path d="M129.185 176.52l.014-22.585 5.813.15 52.533-31.726 63.502-36.986-2.107-1.227c1.967-1.135 13.093-4.255 15.136-5.438v20.534l-.004 1.615-.006-.01c.024 1.886-1.33 3.874-4.007 5.424l-122.066 69.321c-2.527 1.46-5.723 1.787-8.802 1.856l-.006-.928z" fill="url(#E)" transform="matrix(-1 0 0 1 418.852 440.496)"/>
      <path d="M191.913 501.388l-27.41 15.725c-.959.555-.839 1.52.271 2.156l122.328 70.03c1.11.638 2.792.706 3.755.15l96.024-55.088a252.096 252.096 0 0 1 4.691 5.303l-94.821 54.404c-4.211 2.425-11.575 2.126-16.448-.66l-122.67-70.229c-4.869-2.79-5.4-7.013-1.189-9.438l28.99-16.631a117.903 117.903 0 0 1 6.48 4.278"/>
      <path d="M137.146 1.407l126.483 72.13a4.137 4.137 0 0 1 .048 7.152L135.42 156.146a12.29 12.29 0 0 1-12.644-.104L3.871 83.426c-2.586-1.58-3.408-4.966-1.834-7.563a5.492 5.492 0 0 1 1.984-1.93l127.72-72.531a5.462 5.462 0 0 1 5.405.005z" fill="url(#F)" transform="matrix(-1 0 0 1 418.852 440.496)"/>
      <g transform="matrix(-1 0 0 1 410.028 447.46)">
        <mask id="I" fill="#fff">
          <use xlink:href="#G"/>
        </mask>
        <use fill="url(#H)" xlink:href="#G"/>
        <path d="M245.513 93.856c1.104-.64 1.224-1.611.269-2.17L126.379 22.39c-.955-.555-2.63-.486-3.734.155L.92 93.04c-1.112.641-1.231 1.612-.273 2.17l119.4 69.295c.958.559 2.632.49 3.737-.15l121.729-70.499z" fill-opacity=".6" fill="#FFE799" mask="url(#I)"/>
        <path d="M245.513 96.608c1.104-.64 1.224-1.611.269-2.17L126.379 25.143c-.955-.555-2.63-.486-3.734.155L.92 95.792c-1.112.641-1.231 1.612-.273 2.17l119.4 69.295c.958.559 2.632.49 3.737-.15l121.729-70.499z" fill-opacity=".6" fill="#FFE799" mask="url(#I)"/>
        <path d="M245.513 118.624c1.104-.64 1.224-1.611.269-2.17L126.379 47.159c-.955-.555-2.63-.486-3.734.155L.92 117.808c-1.112.641-1.231 1.612-.273 2.17l119.4 69.295c.958.559 2.632.49 3.737-.15l121.729-70.499z" fill-opacity=".6" fill="#FFE799" mask="url(#I)"/>
      </g>
      <path d="M285.29 446.378c.954-.559 2.359.886 3.463 1.527l121.73 70.498c.893.518 1.135 1.252.688 1.807a2.214 2.214 0 0 0-.689-.603l-121.729-69.119c-1.104-.641-2.779-.71-3.733-.154L164.944 519.56c-.274 0-.594-.23-.96-.688-.548-.688-.427-1.422.262-1.823l121.044-70.67z" fill="#FB6E00"/>
      <path d="M183.804 549.615c0 1.535 1.072 3.403 2.397 4.17 1.329.768 2.4.145 2.4-1.39 0-1.536-1.071-3.404-2.4-4.172-1.325-.768-2.397-.144-2.397 1.392M175.44 544.768c0 1.535 1.072 3.403 2.4 4.171 1.326.768 2.398.144 2.398-1.388 0-1.539-1.072-3.407-2.398-4.175-1.328-.764-2.4-.144-2.4 1.392M167.076 539.922c0 1.535 1.075 3.403 2.4 4.17 1.325.768 2.398.145 2.398-1.387 0-1.54-1.073-3.404-2.398-4.175-1.325-.764-2.4-.144-2.4 1.392" fill="#FFE799"/>
      <g>
        <path d="M198.599 465.797l-31.88 18.351 63.894 36.91 55.615 30.286 4.79-.233 92.877-51.825 5.558-2.864a272.659 272.659 0 0 1 14.644 18.111l-107.155 61.683c-4.216 2.437-11.593 2.139-16.471-.663L157.655 505c-2.697-1.543-4.056-3.531-4.032-5.41l-.01.01v-22.104l4.206 3.744 3.62-2.091c-.395-.459-.666-.859-.59-.982.212-.376 1.794-3.114 1.794-3.114l27.015-15.904a127.583 127.583 0 0 1 8.941 6.648"/>
        <path d="M252.133 83.652l-63.894 36.91-55.615 30.286-4.79-.233L1.37 78.432c0 7.768-.084 11.723-.013 24.933.013 2.587 1.384 2.587 1.384 2.587l119.168 69.768c4.217 2.437 11.593 2.139 16.472-.663l122.816-70.553c2.697-1.543 4.056-3.531 4.032-5.41l.01.01V77l-4.206 3.744-3.62-2.091c.395-.459.666-.859.59-.982-.213-.376-1.794-3.114-1.794-3.114l-27.015-15.904a127.583 127.583 0 0 0-8.941 6.648l31.88 18.351z" fill="url(#D)" transform="matrix(-1 0 0 1 418.852 400.496)"/>
        <path d="M129.185 176.52l.014-22.585 5.813.15 52.533-31.726 63.502-36.986-2.107-1.227c1.967-1.135 13.093-4.255 15.136-5.438v20.534l-.004 1.615-.006-.01c.024 1.886-1.33 3.874-4.007 5.424l-122.066 69.321c-2.527 1.46-5.723 1.787-8.802 1.856l-.006-.928z" fill="url(#E)" transform="matrix(-1 0 0 1 418.852 400.496)"/>
        <path d="M191.913 461.388l-27.41 15.725c-.959.555-.839 1.52.271 2.156l122.328 70.03c1.11.638 2.792.706 3.755.15l96.024-55.088a252.096 252.096 0 0 1 4.691 5.303l-94.821 54.404c-4.211 2.425-11.575 2.126-16.448-.66l-122.67-70.229c-4.869-2.79-5.4-7.013-1.189-9.438l28.99-16.631a117.903 117.903 0 0 1 6.48 4.278"/>
        <path d="M137.146 1.407l126.483 72.13a4.137 4.137 0 0 1 .048 7.152L135.42 156.146a12.29 12.29 0 0 1-12.644-.104L3.871 83.426c-2.586-1.58-3.408-4.966-1.834-7.563a5.492 5.492 0 0 1 1.984-1.93l127.72-72.531a5.462 5.462 0 0 1 5.405.005z" fill="url(#F)" transform="matrix(-1 0 0 1 418.852 400.496)"/>
        <g transform="matrix(-1 0 0 1 410.028 407.46)">
          <mask id="K" fill="#fff">
            <use xlink:href="#J"/>
          </mask>
          <use fill="url(#H)" xlink:href="#J"/>
          <path d="M245.513 93.856c1.104-.64 1.224-1.611.269-2.17L126.379 22.39c-.955-.555-2.63-.486-3.734.155L.92 93.04c-1.112.641-1.231 1.612-.273 2.17l119.4 69.295c.958.559 2.632.49 3.737-.15l121.729-70.499z" fill-opacity=".6" fill="#FFE799" mask="url(#K)"/>
          <path d="M245.513 96.608c1.104-.64 1.224-1.611.269-2.17L126.379 25.143c-.955-.555-2.63-.486-3.734.155L.92 95.792c-1.112.641-1.231 1.612-.273 2.17l119.4 69.295c.958.559 2.632.49 3.737-.15l121.729-70.499z" fill-opacity=".6" fill="#FFE799" mask="url(#K)"/>
          <path d="M245.513 118.624c1.104-.64 1.224-1.611.269-2.17L126.379 47.159c-.955-.555-2.63-.486-3.734.155L.92 117.808c-1.112.641-1.231 1.612-.273 2.17l119.4 69.295c.958.559 2.632.49 3.737-.15l121.729-70.499z" fill-opacity=".6" fill="#FFE799" mask="url(#K)"/>
        </g>
        <path d="M285.29 406.378c.954-.559 2.359.886 3.463 1.527l121.73 70.498c.893.518 1.135 1.252.688 1.807a2.214 2.214 0 0 0-.689-.603l-121.729-69.119c-1.104-.641-2.779-.71-3.733-.154L164.944 479.56c-.274 0-.594-.23-.96-.688-.548-.688-.427-1.422.262-1.823l121.044-70.67z" fill="#FB6E00"/>
        <path d="M183.804 509.615c0 1.535 1.072 3.403 2.397 4.17 1.329.768 2.4.145 2.4-1.39 0-1.536-1.071-3.404-2.4-4.172-1.325-.768-2.397-.144-2.397 1.392M175.44 504.768c0 1.535 1.072 3.403 2.4 4.171 1.326.768 2.398.144 2.398-1.388 0-1.539-1.072-3.407-2.398-4.175-1.328-.764-2.4-.144-2.4 1.392M167.076 499.922c0 1.535 1.075 3.403 2.4 4.17 1.325.768 2.398.145 2.398-1.387 0-1.54-1.073-3.404-2.398-4.175-1.325-.764-2.4-.144-2.4 1.392" fill="#FFE799"/>
      </g>
      <g>
        <path d="M198.599 424.797l-31.88 18.351 63.894 36.91 55.615 30.286 4.79-.233 92.877-51.825 5.558-2.864a272.659 272.659 0 0 1 14.644 18.111l-107.155 61.683c-4.216 2.437-11.593 2.139-16.471-.663L157.655 464c-2.697-1.543-4.056-3.531-4.032-5.41l-.01.01v-22.104l4.206 3.744 3.62-2.091c-.395-.459-.666-.859-.59-.982.212-.376 1.794-3.114 1.794-3.114l27.015-15.904a127.583 127.583 0 0 1 8.941 6.648"/>
        <path d="M252.133 83.652l-63.894 36.91-55.615 30.286-4.79-.233L1.37 78.432c0 7.768-.084 11.723-.013 24.933.013 2.587 1.384 2.587 1.384 2.587l119.168 69.768c4.217 2.437 11.593 2.139 16.472-.663l122.816-70.553c2.697-1.543 4.056-3.531 4.032-5.41l.01.01V77l-4.206 3.744-3.62-2.091c.395-.459.666-.859.59-.982-.213-.376-1.794-3.114-1.794-3.114l-27.015-15.904a127.583 127.583 0 0 0-8.941 6.648l31.88 18.351z" fill="url(#D)" transform="matrix(-1 0 0 1 418.852 359.496)"/>
        <path d="M129.185 176.52l.014-22.585 5.813.15 52.533-31.726 63.502-36.986-2.107-1.227c1.967-1.135 13.093-4.255 15.136-5.438v20.534l-.004 1.615-.006-.01c.024 1.886-1.33 3.874-4.007 5.424l-122.066 69.321c-2.527 1.46-5.723 1.787-8.802 1.856l-.006-.928z" fill="url(#E)" transform="matrix(-1 0 0 1 418.852 359.496)"/>
        <path d="M191.913 420.388l-27.41 15.725c-.959.555-.839 1.52.271 2.156l122.328 70.03c1.11.638 2.792.706 3.755.15l96.024-55.088a252.096 252.096 0 0 1 4.691 5.303l-94.821 54.404c-4.211 2.425-11.575 2.126-16.448-.66l-122.67-70.229c-4.869-2.79-5.4-7.013-1.189-9.438l28.99-16.631a117.903 117.903 0 0 1 6.48 4.278"/>
        <path d="M137.146 1.407l126.483 72.13a4.137 4.137 0 0 1 .048 7.152L135.42 156.146a12.29 12.29 0 0 1-12.644-.104L3.871 83.426c-2.586-1.58-3.408-4.966-1.834-7.563a5.492 5.492 0 0 1 1.984-1.93l127.72-72.531a5.462 5.462 0 0 1 5.405.005z" fill="url(#F)" transform="matrix(-1 0 0 1 418.852 359.496)"/>
        <g transform="matrix(-1 0 0 1 410.028 366.46)">
          <mask id="M" fill="#fff">
            <use xlink:href="#L"/>
          </mask>
          <use fill="url(#H)" xlink:href="#L"/>
          <path d="M245.513 93.856c1.104-.64 1.224-1.611.269-2.17L126.379 22.39c-.955-.555-2.63-.486-3.734.155L.92 93.04c-1.112.641-1.231 1.612-.273 2.17l119.4 69.295c.958.559 2.632.49 3.737-.15l121.729-70.499z" fill-opacity=".6" fill="#FFE799" mask="url(#M)"/>
          <path d="M245.513 96.608c1.104-.64 1.224-1.611.269-2.17L126.379 25.143c-.955-.555-2.63-.486-3.734.155L.92 95.792c-1.112.641-1.231 1.612-.273 2.17l119.4 69.295c.958.559 2.632.49 3.737-.15l121.729-70.499z" fill-opacity=".6" fill="#FFE799" mask="url(#M)"/>
          <path d="M245.513 118.624c1.104-.64 1.224-1.611.269-2.17L126.379 47.159c-.955-.555-2.63-.486-3.734.155L.92 117.808c-1.112.641-1.231 1.612-.273 2.17l119.4 69.295c.958.559 2.632.49 3.737-.15l121.729-70.499z" fill-opacity=".6" fill="#FFE799" mask="url(#M)"/>
        </g>
        <path d="M285.29 365.378c.954-.559 2.359.886 3.463 1.527l121.73 70.498c.893.518 1.135 1.252.688 1.807a2.214 2.214 0 0 0-.689-.603l-121.729-69.119c-1.104-.641-2.779-.71-3.733-.154L164.944 438.56c-.274 0-.594-.23-.96-.688-.548-.688-.427-1.422.262-1.823l121.044-70.67z" fill="#FB6E00"/>
        <path d="M183.804 468.615c0 1.535 1.072 3.403 2.397 4.17 1.329.768 2.4.145 2.4-1.39 0-1.536-1.071-3.404-2.4-4.172-1.325-.768-2.397-.144-2.397 1.392M175.44 463.768c0 1.535 1.072 3.403 2.4 4.171 1.326.768 2.398.144 2.398-1.388 0-1.539-1.072-3.407-2.398-4.175-1.328-.764-2.4-.144-2.4 1.392M167.076 458.922c0 1.535 1.075 3.403 2.4 4.17 1.325.768 2.398.145 2.398-1.387 0-1.54-1.073-3.404-2.398-4.175-1.325-.764-2.4-.144-2.4 1.392" fill="#FFE799"/>
      </g>
    </g>
    <g fill-rule="nonzero">
      <path d="M70.492 89.491L55.767 87s-39.247 15.7-43.14 21.352c-3.893 5.652-5.998 47.424-5.998 47.424s-7.934 6.814-6.442 8.886c1.491 2.073 15.286-6.07 15.286-6.07l10.78-32.31L88 91.511l-17.508-2.02z" fill="url(#N)" transform="matrix(-1 0 0 1 400 352)"/>
      <path d="M345.534 416.523c1.81 1.746 4.311 2.276 6.327 3.705 2.015 1.429 4.139 2.329 5.874 3.79a6.423 6.423 0 0 1 2.156 6.065 1.293 1.293 0 0 1-.378.773 1.358 1.358 0 0 1-1.218 0 20.263 20.263 0 0 1-5.583-3.218.894.894 0 0 0-.765-.233c-.313.116-.388.519-.604.773a1.088 1.088 0 0 1-1.54 0 3.714 3.714 0 0 1-.874-1.419c-1.304-3.017-5.756-3.229-8.827-2.964-3.751.318-2.48-1.408-2.986-1.874-.507-.465.788-14.844 1.143-15.688 1.907-3.726 3.481 2.043 3.923 3.483.754 2.371 1.444 4.975 3.352 6.807z" fill="#FEE2CC"/>
      <path d="M342.904 403.67c.128.42.128.87 0 1.29-.162.36-.418.664-.738.878a11.74 11.74 0 0 1-3.94 1.99c-.423.146-.87.2-1.313.158a3.47 3.47 0 0 1-2.02-1.333c-2.635-3.142-4.245-7.082-4.597-11.248-.192-1.862-.819-8.676.666-10.03 1.667-1.524 3.738 2 4.86 3.47 3.352 4.35 5.768 9.406 7.082 14.824z" fill="#FFF"/>
      <path d="M333.425 390.396c4.41 10.693 6.172 22.346 6.256 33.916 0 3.714 5.369 12.926 2.45 15.231-1.752 1.388-1.929 1.304-4.17 1.628-5.213.751-22.937 11.674-28.045 10.777-5.109-.898-9.988-30.88-9.915-34.95.177-11.308 1.157-24.923 9.915-33.217 3.367-3.181 7.652-6.875 12.51-5.477 5.724 1.67 8.852 6.938 11 12.092z" fill="#FFF"/>
      <path fill="url(#O)" d="M26.034 89.385L46.134 101 71 89.593l-5.486-3.477-16.616-11.792-13.435 6.505-4.13-7.067L8 63z" transform="matrix(-1 0 0 1 400 352)"/>
      <path d="M35 80.625s10.172 14.83 10.233 15.353C45.295 96.5 65 87.605 65 87.605L48.26 74 35 80.625z" fill="url(#P)" transform="matrix(-1 0 0 1 400 352)"/>
      <path d="M318 421.559c3.402 3.213 7.391 4.579 12.018 5.523a103.87 103.87 0 0 0 11.944 1.725c2.753.246 5.611.4 8.082 1.632 2.47 1.232 4.438 3.912 3.852 6.561-9.24-.48-18.48-1.027-27.72-1.643-4.91-.328-9.892-.688-14.54-2.258-3.255-1.099-6.521-3.019-7.809-6.16a12.373 12.373 0 0 1-.754-3.943 76.394 76.394 0 0 1 .22-10.03 16.488 16.488 0 0 1 1.35-6.572c2.408-4.722 10.802-4.517 11.65.616.91 5.493-3.202 9.918 1.707 14.549z" fill="#FEE2CC"/>
      <path d="M69.932 90l-48.583 25.686-3.786 45.322S10 167.938 10 169.958c0 2.02 4.071.868 10.189-1.445a35.955 35.955 0 0 0 9.303-4.909l8.438-38.1s50.323-6.929 54.11-17.323c2.29-5.812.386-12.426-4.652-16.16L69.932 90z" fill="url(#Q)" transform="matrix(-1 0 0 1 400 352)"/>
      <path d="M83.327 41.454s-2.97 18.63-2.2 20.013c.772 1.384 4.692 3.057 4.692 3.057S98.872 67.622 99 58.014c-4.786-25.283-15.673-16.56-15.673-16.56z" fill="url(#R)" transform="matrix(-1 0 0 1 400 352)"/>
      <path fill="url(#S)" d="M25.358 88.93L44 100 28.08 76.252 9 66z" transform="matrix(-1 0 0 1 400 352)"/>
      <path d="M334.773 382.571a15.565 15.565 0 0 1-2.166 3.513 9.063 9.063 0 0 1-10.24 2.191 10.653 10.653 0 0 1-5.307-5.906 17.49 17.49 0 0 1-.946-8 16.412 16.412 0 0 1 4.343-10.301 16.8 16.8 0 0 1 6.97-3.788 8.878 8.878 0 0 1 3.777-.456c1.21.253 2.363.725 3.401 1.394a15.046 15.046 0 0 1 3.234 2.283c4.645 4.692-.816 14.52-3.066 19.07z" fill="#FEE2CC"/>
      <path d="M319.812 373.969a1.906 1.906 0 0 1-.841-1.582c-.044-.626.057-1.237.011-1.887a.985.985 0 0 0-.13-.485c-.296-.484-1.067-.209-1.393.258-.855 1.293-.127 2.981-.066 4.53a4.923 4.923 0 0 1-1.036 3.157c-2.201-4.964-2.03-10.691.46-15.486.273-.43.478-.902.608-1.399.216-1.026-.253-2.079-.158-3.121.14-1.761 1.837-2.99 3.522-3.367 1.685-.377 3.436-.154 5.145-.36 1.185-.168 2.355-.546 3.484-.662a13.594 13.594 0 0 1 3.729.27c2.909.524 5.913 1.387 8.047 3.495 2.569 2.496 3.407 6.273 3.85 9.856.252 2.067.31 4.43-1.107 5.91a5.58 5.58 0 0 1-4.055 1.394 6.73 6.73 0 0 1-4.374-1.273 14.095 14.095 0 0 1-2.797-4.232.904.904 0 0 0-.375-.393.777.777 0 0 0-.5.035c-1.081.38-2.197.647-3.33.8a4.11 4.11 0 0 1-3.207-1.01.861.861 0 0 0-.488-.31.653.653 0 0 0-.41.14 14.85 14.85 0 0 0-3.136 1.871 14.08 14.08 0 0 0-1.453 3.85z" fill="#FB6E00"/>
    </g>
    <g>
      <g opacity=".2">
        <path fill="url(#d)" d="M22.344 51.745L0 38.807V12.936l22.344 12.938z" transform="translate(558 223)"/>
        <path fill="url(#e)" d="M44.686 38.808L22.342 51.746V25.872l22.344-12.935z" transform="translate(558 223)"/>
        <path fill="url(#f)" d="M22.344 25.873L0 12.935 22.344 0l22.343 12.938z" transform="translate(558 223)"/>
      </g>
      <use filter="url(#T)" xlink:href="#U" fill="#000" transform="translate(558 163)"/>
      <path fill="url(#d)" d="M22.344 51.745L0 38.807V12.936l22.344 12.938z" transform="translate(558 163)"/>
      <path fill="url(#e)" d="M44.686 38.808L22.342 51.746V25.872l22.344-12.935z" transform="translate(558 163)"/>
      <path fill="url(#f)" d="M22.344 25.873L0 12.935 22.344 0l22.343 12.938z" transform="translate(558 163)"/>
    </g>
  </g>
</svg>